<?xml version="1.0" encoding="UTF-8"?>
<svg xmlns="http://www.w3.org/2000/svg" xmlns:xlink="http://www.w3.org/1999/xlink" width="1024px" height="1024px" viewBox="0 0 1024 1024" version="1.1">
<g id="surface1">
<path style=" stroke:none;fill-rule:nonzero;fill:rgb(14.901961%,63.137257%,48.235294%);fill-opacity:1;" d="M 1024 512 C 1024 229.230469 794.769531 0 512 0 C 229.230469 0 0 229.230469 0 512 C 0 794.769531 229.230469 1024 512 1024 C 794.769531 1024 1024 794.769531 1024 512 Z M 1024 512 "/>
<path style=" stroke:none;fill-rule:nonzero;fill:rgb(100%,100%,100%);fill-opacity:1;" d="M 558.28125 474.625 L 558.28125 428.214844 L 750.953125 428.214844 L 750.953125 332.539062 L 273.046875 332.539062 L 273.046875 428.214844 L 465.71875 428.214844 L 465.71875 474.625 C 324.234375 480.996094 217.070312 505.6875 217.070312 535.3125 C 217.070312 564.933594 324.234375 589.625 465.71875 595.996094 L 465.71875 804.570312 L 558.28125 804.570312 L 558.28125 595.996094 C 699.765625 589.625 806.929688 564.933594 806.929688 535.3125 C 806.929688 505.6875 699.765625 480.996094 558.28125 474.625 Z M 558.28125 565.925781 L 558.28125 565.832031 C 552.546875 566.195312 540.773438 566.820312 512 566.820312 C 487.746094 566.820312 473.871094 566.300781 465.71875 565.890625 L 465.71875 565.925781 C 338.710938 560.390625 240.664062 542.886719 240.664062 522.050781 C 240.664062 501.21875 338.710938 483.710938 465.71875 478.175781 L 465.71875 548.996094 C 473.929688 549.492188 488.191406 550.140625 512 550.140625 C 538.96875 550.140625 552.121094 549.433594 558.28125 548.996094 L 558.28125 478.175781 C 685.289062 483.710938 783.335938 501.21875 783.335938 522.050781 C 783.335938 542.886719 685.289062 560.390625 558.28125 565.925781 Z M 558.28125 565.925781 "/>
</g>
</svg>
